<svg xmlns="http://www.w3.org/2000/svg" viewBox="0 0 32 32">
  <rect width="32" height="32" rx="8" fill="#25d366"/>
  <path d="M22.5 17.7c-.3-.2-1.9-.9-2.2-1s-.5-.2-.7.2c-.2.3-.8 1-.9 1.1-.2.2-.3.2-.6 0-.3-.2-1.3-.5-2.5-1.5-.9-.8-1.5-1.8-1.7-2.1-.2-.3 0-.5.1-.7l.5-.6c.2-.2.2-.3.3-.5.1-.2 0-.4 0-.5l-.7-1.7c-.2-.4-.4-.4-.6-.4h-.5c-.2 0-.5.1-.7.4-.2.3-.9 1-.9 2.3 0 1.4 1 2.7 1.1 2.9.1.2 1.9 2.9 4.6 4 .6.3 1.1.5 1.5.6.6.2 1.2.2 1.6.1.5-.1 1.5-.6 1.7-1.2.2-.6.2-1.1.1-1.2 0-.1-.2-.2-.5-.3z" fill="#ffffff"/>
</svg>
